<svg width="181" height="40" viewBox="0 0 181 40" fill="none" xmlns="http://www.w3.org/2000/svg">
<rect width="181" height="40" rx="6" fill="url(#paint0_linear_28_575)"/>
<g filter="url(#filter0_d_28_575)">
<path d="M9 20.2001V25.8001C9 26.5745 9.62562 27.2001 10.4 27.2001H11.8V18.8001H10.4C9.62562 18.8001 9 19.4257 9 20.2001ZM29.3 13.2001H24.4V10.4001C24.4 9.62575 23.7744 9.00012 23 9.00012C22.2256 9.00012 21.6 9.62575 21.6 10.4001V13.2001H16.7C14.7662 13.2001 13.2 14.7664 13.2 16.7001V28.6001C13.2 30.1445 14.4556 31.4001 16 31.4001H30C31.5444 31.4001 32.8 30.1445 32.8 28.6001V16.7001C32.8 14.7664 31.2337 13.2001 29.3 13.2001ZM20.2 27.2001H17.4V25.8001H20.2V27.2001ZM18.8 21.9501C17.8331 21.9501 17.05 21.167 17.05 20.2001C17.05 19.2332 17.8331 18.4501 18.8 18.4501C19.7669 18.4501 20.55 19.2332 20.55 20.2001C20.55 21.167 19.7669 21.9501 18.8 21.9501ZM24.4 27.2001H21.6V25.8001H24.4V27.2001ZM28.6 27.2001H25.8V25.8001H28.6V27.2001ZM27.2 21.9501C26.2331 21.9501 25.45 21.167 25.45 20.2001C25.45 19.2332 26.2331 18.4501 27.2 18.4501C28.1669 18.4501 28.95 19.2332 28.95 20.2001C28.95 21.167 28.1669 21.9501 27.2 21.9501ZM35.6 18.8001H34.2V27.2001H35.6C36.3744 27.2001 37 26.5745 37 25.8001V20.2001C37 19.4257 36.3744 18.8001 35.6 18.8001Z" fill="white"/>
</g>
<g filter="url(#filter1_d_28_575)">
<path d="M47.5547 18H46.2734L49.1523 10H50.5469L53.4258 18H52.1445L49.8828 11.4531H49.8203L47.5547 18ZM47.7695 14.8672H51.9258V15.8828H47.7695V14.8672ZM58.8681 12L56.6924 18H55.4424L53.2627 12H54.5166L56.0361 16.6172H56.0986L57.6142 12H58.8681ZM61.54 18.1328C61.1598 18.1328 60.8161 18.0625 60.5088 17.9219C60.2015 17.7786 59.958 17.5716 59.7783 17.3008C59.6012 17.0299 59.5127 16.6979 59.5127 16.3047C59.5127 15.9661 59.5778 15.6875 59.708 15.4687C59.8382 15.25 60.014 15.0768 60.2353 14.9492C60.4567 14.8216 60.7041 14.7253 60.9775 14.6602C61.251 14.595 61.5296 14.5456 61.8135 14.5117C62.1728 14.47 62.4645 14.4362 62.6885 14.4102C62.9124 14.3815 63.0752 14.3359 63.1767 14.2734C63.2783 14.2109 63.3291 14.1094 63.3291 13.9687V13.9414C63.3291 13.6003 63.2327 13.3359 63.04 13.1484C62.8499 12.9609 62.5661 12.8672 62.1885 12.8672C61.7952 12.8672 61.4853 12.9544 61.2588 13.1289C61.0348 13.3008 60.8799 13.4922 60.7939 13.7031L59.6963 13.4531C59.8265 13.0885 60.0166 12.7943 60.2666 12.5703C60.5192 12.3437 60.8096 12.1797 61.1377 12.0781C61.4658 11.974 61.8109 11.9219 62.1728 11.9219C62.4124 11.9219 62.6663 11.9505 62.9346 12.0078C63.2054 12.0625 63.458 12.1641 63.6924 12.3125C63.9293 12.4609 64.1234 12.6732 64.2744 12.9492C64.4254 13.2227 64.501 13.5781 64.501 14.0156V18H63.3603V17.1797H63.3135C63.2379 17.3307 63.1247 17.4792 62.9736 17.625C62.8226 17.7708 62.6286 17.8919 62.3916 17.9883C62.1546 18.0846 61.8707 18.1328 61.54 18.1328ZM61.7939 17.1953C62.1168 17.1953 62.3929 17.1315 62.6221 17.0039C62.8538 16.8763 63.0296 16.7096 63.1494 16.5039C63.2718 16.2956 63.333 16.0729 63.333 15.8359V15.0625C63.2913 15.1042 63.2106 15.1432 63.0908 15.1797C62.9736 15.2135 62.8395 15.2435 62.6885 15.2695C62.5374 15.293 62.3903 15.3151 62.2471 15.3359C62.1038 15.3542 61.984 15.3698 61.8877 15.3828C61.6611 15.4115 61.4541 15.4596 61.2666 15.5273C61.0817 15.595 60.9332 15.6927 60.8213 15.8203C60.7119 15.9453 60.6572 16.112 60.6572 16.3203C60.6572 16.6094 60.764 16.8281 60.9775 16.9766C61.1911 17.1224 61.4632 17.1953 61.7939 17.1953ZM66.0566 18V12H67.2246V18H66.0566ZM66.6465 11.0742C66.4433 11.0742 66.2689 11.0065 66.123 10.8711C65.9798 10.7331 65.9082 10.569 65.9082 10.3789C65.9082 10.1862 65.9798 10.0221 66.123 9.88672C66.2689 9.7487 66.4433 9.67969 66.6465 9.67969C66.8496 9.67969 67.0228 9.7487 67.166 9.88672C67.3118 10.0221 67.3847 10.1862 67.3847 10.3789C67.3847 10.569 67.3118 10.7331 67.166 10.8711C67.0228 11.0065 66.8496 11.0742 66.6465 11.0742ZM69.9638 10V18H68.7959V10H69.9638ZM73.2812 18.1328C72.901 18.1328 72.5573 18.0625 72.25 17.9219C71.9427 17.7786 71.6992 17.5716 71.5195 17.3008C71.3424 17.0299 71.2539 16.6979 71.2539 16.3047C71.2539 15.9661 71.319 15.6875 71.4492 15.4687C71.5794 15.25 71.7552 15.0768 71.9765 14.9492C72.1979 14.8216 72.4453 14.7253 72.7187 14.6602C72.9922 14.595 73.2708 14.5456 73.5547 14.5117C73.914 14.47 74.2057 14.4362 74.4297 14.4102C74.6536 14.3815 74.8164 14.3359 74.9179 14.2734C75.0195 14.2109 75.0703 14.1094 75.0703 13.9687V13.9414C75.0703 13.6003 74.9739 13.3359 74.7812 13.1484C74.5911 12.9609 74.3073 12.8672 73.9297 12.8672C73.5364 12.8672 73.2265 12.9544 73 13.1289C72.776 13.3008 72.6211 13.4922 72.5351 13.7031L71.4375 13.4531C71.5677 13.0885 71.7578 12.7943 72.0078 12.5703C72.2604 12.3437 72.5508 12.1797 72.8789 12.0781C73.207 11.974 73.5521 11.9219 73.914 11.9219C74.1536 11.9219 74.4075 11.9505 74.6758 12.0078C74.9466 12.0625 75.1992 12.1641 75.4336 12.3125C75.6705 12.4609 75.8646 12.6732 76.0156 12.9492C76.1666 13.2227 76.2422 13.5781 76.2422 14.0156V18H75.1015V17.1797H75.0547C74.9791 17.3307 74.8659 17.4792 74.7148 17.625C74.5638 17.7708 74.3698 17.8919 74.1328 17.9883C73.8958 18.0846 73.612 18.1328 73.2812 18.1328ZM73.5351 17.1953C73.858 17.1953 74.1341 17.1315 74.3633 17.0039C74.595 16.8763 74.7708 16.7096 74.8906 16.5039C75.013 16.2956 75.0742 16.0729 75.0742 15.8359V15.0625C75.0325 15.1042 74.9518 15.1432 74.832 15.1797C74.7148 15.2135 74.5807 15.2435 74.4297 15.2695C74.2786 15.293 74.1315 15.3151 73.9883 15.3359C73.845 15.3542 73.7252 15.3698 73.6289 15.3828C73.4023 15.4115 73.1953 15.4596 73.0078 15.5273C72.8229 15.595 72.6745 15.6927 72.5625 15.8203C72.4531 15.9453 72.3984 16.112 72.3984 16.3203C72.3984 16.6094 72.5052 16.8281 72.7187 16.9766C72.9323 17.1224 73.2044 17.1953 73.5351 17.1953ZM77.8916 18V10H79.0595V12.9727H79.1299C79.1976 12.8477 79.2952 12.7031 79.4228 12.5391C79.5504 12.375 79.7275 12.2318 79.9541 12.1094C80.1806 11.9844 80.4801 11.9219 80.8525 11.9219C81.3369 11.9219 81.7692 12.0443 82.1494 12.2891C82.5296 12.5339 82.8278 12.8867 83.0439 13.3477C83.2627 13.8086 83.372 14.3633 83.372 15.0117C83.372 15.6602 83.264 16.2161 83.0478 16.6797C82.8317 17.1406 82.5348 17.4961 82.1572 17.7461C81.7796 17.9935 81.3486 18.1172 80.8642 18.1172C80.4996 18.1172 80.2015 18.056 79.9697 17.9336C79.7405 17.8112 79.5608 17.668 79.4306 17.5039C79.3004 17.3398 79.2002 17.194 79.1299 17.0664H79.0322V18H77.8916ZM79.0361 15C79.0361 15.4219 79.0973 15.7917 79.2197 16.1094C79.3421 16.4271 79.5192 16.6758 79.751 16.8555C79.9827 17.0325 80.2666 17.1211 80.6025 17.1211C80.9515 17.1211 81.2431 17.0286 81.4775 16.8437C81.7119 16.6562 81.889 16.4023 82.0088 16.082C82.1312 15.7617 82.1924 15.401 82.1924 15C82.1924 14.6042 82.1325 14.2487 82.0127 13.9336C81.8955 13.6185 81.7184 13.3698 81.4814 13.1875C81.247 13.0052 80.9541 12.9141 80.6025 12.9141C80.264 12.9141 79.9775 13.0013 79.7431 13.1758C79.5114 13.3503 79.3356 13.5937 79.2158 13.9062C79.096 14.2187 79.0361 14.5833 79.0361 15ZM85.8515 10V18H84.6836V10H85.8515ZM90.0088 18.1211C89.4176 18.1211 88.9085 17.9948 88.4814 17.7422C88.0569 17.487 87.7288 17.1289 87.497 16.668C87.2679 16.2044 87.1533 15.6615 87.1533 15.0391C87.1533 14.4245 87.2679 13.8828 87.497 13.4141C87.7288 12.9453 88.0517 12.5794 88.4658 12.3164C88.8825 12.0534 89.3694 11.9219 89.9267 11.9219C90.2653 11.9219 90.5934 11.9779 90.9111 12.0898C91.2288 12.2018 91.514 12.3776 91.7666 12.6172C92.0192 12.8568 92.2184 13.168 92.3642 13.5508C92.5101 13.931 92.583 14.3932 92.583 14.9375V15.3516H87.8134V14.4766H91.4384C91.4384 14.1693 91.3759 13.8971 91.2509 13.6602C91.1259 13.4206 90.9502 13.2318 90.7236 13.0937C90.4996 12.9557 90.2366 12.8867 89.9345 12.8867C89.6064 12.8867 89.32 12.9674 89.0752 13.1289C88.833 13.2878 88.6455 13.4961 88.5127 13.7539C88.3825 14.0091 88.3174 14.2865 88.3174 14.5859V15.2695C88.3174 15.6706 88.3877 16.0117 88.5283 16.293C88.6715 16.5742 88.8707 16.7891 89.1259 16.9375C89.3812 17.0833 89.6793 17.1562 90.0205 17.1562C90.2418 17.1562 90.4437 17.125 90.6259 17.0625C90.8082 16.9974 90.9658 16.901 91.0986 16.7734C91.2314 16.6458 91.333 16.4883 91.4033 16.3008L92.5088 16.5C92.4202 16.8255 92.2614 17.1107 92.0322 17.3555C91.8056 17.5977 91.5205 17.7865 91.1767 17.9219C90.8356 18.0547 90.4463 18.1211 90.0088 18.1211ZM99.3174 18.1211C98.7549 18.1211 98.264 17.9922 97.8447 17.7344C97.4254 17.4766 97.0999 17.1159 96.8681 16.6523C96.6364 16.1888 96.5205 15.6471 96.5205 15.0273C96.5205 14.4049 96.6364 13.8607 96.8681 13.3945C97.0999 12.9284 97.4254 12.5664 97.8447 12.3086C98.264 12.0508 98.7549 11.9219 99.3174 11.9219C99.8799 11.9219 100.371 12.0508 100.79 12.3086C101.209 12.5664 101.535 12.9284 101.767 13.3945C101.998 13.8607 102.114 14.4049 102.114 15.0273C102.114 15.6471 101.998 16.1888 101.767 16.6523C101.535 17.1159 101.209 17.4766 100.79 17.7344C100.371 17.9922 99.8799 18.1211 99.3174 18.1211ZM99.3213 17.1406C99.6858 17.1406 99.9879 17.0443 100.228 16.8516C100.467 16.6589 100.644 16.4023 100.759 16.082C100.876 15.7617 100.935 15.4089 100.935 15.0234C100.935 14.6406 100.876 14.2891 100.759 13.9687C100.644 13.6458 100.467 13.3867 100.228 13.1914C99.9879 12.9961 99.6858 12.8984 99.3213 12.8984C98.9541 12.8984 98.6494 12.9961 98.4072 13.1914C98.1676 13.3867 97.9892 13.6458 97.872 13.9687C97.7575 14.2891 97.7002 14.6406 97.7002 15.0234C97.7002 15.4089 97.7575 15.7617 97.872 16.082C97.9892 16.4023 98.1676 16.6589 98.4072 16.8516C98.6494 17.0443 98.9541 17.1406 99.3213 17.1406ZM104.586 14.4375V18H103.418V12H104.539V12.9766H104.613C104.751 12.6589 104.967 12.4036 105.262 12.2109C105.559 12.0182 105.932 11.9219 106.383 11.9219C106.792 11.9219 107.15 12.0078 107.457 12.1797C107.764 12.349 108.003 12.6016 108.172 12.9375C108.341 13.2734 108.426 13.6888 108.426 14.1836V18H107.258V14.3242C107.258 13.8893 107.144 13.5495 106.918 13.3047C106.691 13.0573 106.38 12.9336 105.984 12.9336C105.714 12.9336 105.473 12.9922 105.262 13.1094C105.053 13.2266 104.888 13.3984 104.766 13.625C104.646 13.849 104.586 14.1198 104.586 14.4375Z" fill="#E8E8E8"/>
<path d="M46.6605 22.2727H49.2727L51.4886 27.6761H51.5909L53.8068 22.2727H56.419V31H54.365V25.6392H54.2926L52.196 30.9446H50.8835L48.7869 25.6094H48.7145V31H46.6605V22.2727ZM57.7347 31V24.4545H59.8185V31H57.7347ZM58.7787 23.6918C58.4861 23.6918 58.2347 23.5952 58.0245 23.402C57.8143 23.206 57.7091 22.9702 57.7091 22.6946C57.7091 22.4219 57.8143 22.1889 58.0245 21.9957C58.2347 21.7997 58.4861 21.7017 58.7787 21.7017C59.0742 21.7017 59.3256 21.7997 59.533 21.9957C59.7432 22.1889 59.8483 22.4219 59.8483 22.6946C59.8483 22.9702 59.7432 23.206 59.533 23.402C59.3256 23.5952 59.0742 23.6918 58.7787 23.6918ZM64.2003 31.1236C63.5099 31.1236 62.9176 30.9815 62.4233 30.6974C61.9318 30.4133 61.554 30.0185 61.2898 29.5128C61.0255 29.0043 60.8934 28.4162 60.8934 27.7486C60.8934 27.0781 61.0255 26.4901 61.2898 25.9844C61.5568 25.4759 61.9361 25.0795 62.4275 24.7955C62.9219 24.5114 63.5113 24.3693 64.196 24.3693C64.8011 24.3693 65.3281 24.4787 65.777 24.6974C66.2287 24.9162 66.5809 25.2259 66.8338 25.6264C67.0895 26.0241 67.2244 26.4915 67.2386 27.0284H65.2912C65.2514 26.6932 65.1378 26.4304 64.9503 26.2401C64.7656 26.0497 64.5241 25.9545 64.2258 25.9545C63.9844 25.9545 63.7727 26.0227 63.5909 26.1591C63.4091 26.2926 63.267 26.4915 63.1648 26.7557C63.0653 27.017 63.0156 27.3409 63.0156 27.7273C63.0156 28.1136 63.0653 28.4403 63.1648 28.7074C63.267 28.9716 63.4091 29.1719 63.5909 29.3082C63.7727 29.4418 63.9844 29.5085 64.2258 29.5085C64.419 29.5085 64.5895 29.4673 64.7372 29.3849C64.8878 29.3026 65.0113 29.1818 65.1079 29.0227C65.2045 28.8608 65.2656 28.6648 65.2912 28.4347H67.2386C67.2187 28.9744 67.0838 29.446 66.8338 29.8494C66.5866 30.2528 66.2386 30.5668 65.7898 30.7912C65.3437 31.0128 64.8139 31.1236 64.2003 31.1236ZM70.6956 31.0937C70.2127 31.0937 69.7738 30.9687 69.3789 30.7187C68.984 30.4687 68.6687 30.0937 68.4329 29.5937C68.1971 29.0937 68.0792 28.473 68.0792 27.7315C68.0792 26.9616 68.2013 26.3281 68.4456 25.831C68.69 25.3338 69.0096 24.9659 69.4045 24.7273C69.8022 24.4886 70.2297 24.3693 70.6871 24.3693C71.0309 24.3693 71.3249 24.429 71.5692 24.5483C71.8135 24.6648 72.0152 24.8153 72.1743 25C72.3334 25.1847 72.4542 25.3764 72.5366 25.5753H72.5792V22.2727H74.663V31H72.6005V29.9389H72.5366C72.4485 30.1406 72.3235 30.3295 72.1616 30.5057C71.9996 30.6818 71.7965 30.8239 71.5522 30.9318C71.3107 31.0398 71.0252 31.0937 70.6956 31.0937ZM71.4201 29.4702C71.6729 29.4702 71.8888 29.3991 72.0678 29.2571C72.2468 29.1122 72.3846 28.9091 72.4812 28.6477C72.5777 28.3864 72.626 28.0795 72.626 27.7273C72.626 27.3693 72.5777 27.0611 72.4812 26.8026C72.3874 26.544 72.2496 26.3452 72.0678 26.206C71.8888 26.0668 71.6729 25.9972 71.4201 25.9972C71.1616 25.9972 70.9428 26.0682 70.7638 26.2102C70.5848 26.3523 70.4485 26.5526 70.3547 26.8111C70.2638 27.0696 70.2184 27.375 70.2184 27.7273C70.2184 28.0795 70.2652 28.3864 70.359 28.6477C70.4527 28.9091 70.5877 29.1122 70.7638 29.2571C70.9428 29.3991 71.1616 29.4702 71.4201 29.4702ZM79.0362 31.1236C78.3487 31.1236 77.7578 30.983 77.2635 30.7017C76.772 30.4176 76.3927 30.0227 76.1257 29.517C75.8615 29.0085 75.7294 28.419 75.7294 27.7486C75.7294 27.0753 75.8615 26.4858 76.1257 25.9801C76.3927 25.4716 76.772 25.0767 77.2635 24.7955C77.7578 24.5114 78.3487 24.3693 79.0362 24.3693C79.7237 24.3693 80.3132 24.5114 80.8047 24.7955C81.299 25.0767 81.6782 25.4716 81.9424 25.9801C82.2095 26.4858 82.343 27.0753 82.343 27.7486C82.343 28.419 82.2095 29.0085 81.9424 29.517C81.6782 30.0227 81.299 30.4176 80.8047 30.7017C80.3132 30.983 79.7237 31.1236 79.0362 31.1236ZM79.049 29.5511C79.299 29.5511 79.5106 29.4744 79.6839 29.321C79.8572 29.1676 79.9893 28.9545 80.0802 28.6818C80.174 28.4091 80.2209 28.0937 80.2209 27.7358C80.2209 27.3722 80.174 27.054 80.0802 26.7812C79.9893 26.5085 79.8572 26.2955 79.6839 26.142C79.5106 25.9886 79.299 25.9119 79.049 25.9119C78.7905 25.9119 78.5717 25.9886 78.3927 26.142C78.2166 26.2955 78.0817 26.5085 77.9879 26.7812C77.897 27.054 77.8515 27.3722 77.8515 27.7358C77.8515 28.0937 77.897 28.4091 77.9879 28.6818C78.0817 28.9545 78.2166 29.1676 78.3927 29.321C78.5717 29.4744 78.7905 29.5511 79.049 29.5511ZM86.4659 31.1236C85.7784 31.1236 85.1875 30.983 84.6932 30.7017C84.2017 30.4176 83.8224 30.0227 83.5554 29.517C83.2912 29.0085 83.1591 28.419 83.1591 27.7486C83.1591 27.0753 83.2912 26.4858 83.5554 25.9801C83.8224 25.4716 84.2017 25.0767 84.6932 24.7955C85.1875 24.5114 85.7784 24.3693 86.4659 24.3693C87.1534 24.3693 87.7429 24.5114 88.2343 24.7955C88.7287 25.0767 89.1079 25.4716 89.3721 25.9801C89.6392 26.4858 89.7727 27.0753 89.7727 27.7486C89.7727 28.419 89.6392 29.0085 89.3721 29.517C89.1079 30.0227 88.7287 30.4176 88.2343 30.7017C87.7429 30.983 87.1534 31.1236 86.4659 31.1236ZM86.4787 29.5511C86.7287 29.5511 86.9403 29.4744 87.1136 29.321C87.2869 29.1676 87.419 28.9545 87.5099 28.6818C87.6037 28.4091 87.6505 28.0937 87.6505 27.7358C87.6505 27.3722 87.6037 27.054 87.5099 26.7812C87.419 26.5085 87.2869 26.2955 87.1136 26.142C86.9403 25.9886 86.7287 25.9119 86.4787 25.9119C86.2201 25.9119 86.0014 25.9886 85.8224 26.142C85.6463 26.2955 85.5113 26.5085 85.4176 26.7812C85.3267 27.054 85.2812 27.3722 85.2812 27.7358C85.2812 28.0937 85.3267 28.4091 85.4176 28.6818C85.5113 28.9545 85.6463 29.1676 85.8224 29.321C86.0014 29.4744 86.2201 29.5511 86.4787 29.5511ZM93.2308 31.0937C92.7478 31.0937 92.3089 30.9687 91.914 30.7187C91.5191 30.4687 91.2038 30.0937 90.968 29.5937C90.7322 29.0937 90.6143 28.473 90.6143 27.7315C90.6143 26.9616 90.7365 26.3281 90.9808 25.831C91.2251 25.3338 91.5447 24.9659 91.9396 24.7273C92.3373 24.4886 92.7649 24.3693 93.2223 24.3693C93.566 24.3693 93.8601 24.429 94.1044 24.5483C94.3487 24.6648 94.5504 24.8153 94.7095 25C94.8686 25.1847 94.9893 25.3764 95.0717 25.5753H95.1143V22.2727H97.1981V31H95.1356V29.9389H95.0717C94.9836 30.1406 94.8586 30.3295 94.6967 30.5057C94.5348 30.6818 94.3316 30.8239 94.0873 30.9318C93.8459 31.0398 93.5603 31.0937 93.2308 31.0937ZM93.9552 29.4702C94.2081 29.4702 94.424 29.3991 94.603 29.2571C94.7819 29.1122 94.9197 28.9091 95.0163 28.6477C95.1129 28.3864 95.1612 28.0795 95.1612 27.7273C95.1612 27.3693 95.1129 27.0611 95.0163 26.8026C94.9226 26.544 94.7848 26.3452 94.603 26.206C94.424 26.0668 94.2081 25.9972 93.9552 25.9972C93.6967 25.9972 93.478 26.0682 93.299 26.2102C93.12 26.3523 92.9836 26.5526 92.8899 26.8111C92.799 27.0696 92.7535 27.375 92.7535 27.7273C92.7535 28.0795 92.8004 28.3864 92.8941 28.6477C92.9879 28.9091 93.1228 29.1122 93.299 29.2571C93.478 29.3991 93.6967 29.4702 93.9552 29.4702ZM100.6 22.2727V31H98.5159V22.2727H100.6ZM104.986 31.1236C104.301 31.1236 103.71 30.9886 103.213 30.7187C102.719 30.446 102.338 30.0582 102.071 29.5554C101.807 29.0497 101.675 28.4489 101.675 27.7528C101.675 27.0767 101.808 26.4858 102.075 25.9801C102.342 25.4716 102.719 25.0767 103.205 24.7955C103.69 24.5114 104.263 24.3693 104.922 24.3693C105.388 24.3693 105.814 24.4418 106.2 24.5866C106.587 24.7315 106.92 24.946 107.202 25.2301C107.483 25.5142 107.702 25.8651 107.858 26.2827C108.014 26.6974 108.092 27.1733 108.092 27.7102V28.2301H102.403V27.0199H106.153C106.151 26.7983 106.098 26.6009 105.996 26.4276C105.893 26.2543 105.753 26.1193 105.574 26.0227C105.398 25.9233 105.195 25.8736 104.964 25.8736C104.732 25.8736 104.523 25.9261 104.338 26.0312C104.153 26.1335 104.007 26.2741 103.899 26.4531C103.791 26.6293 103.734 26.8295 103.729 27.054V28.2855C103.729 28.5526 103.781 28.7869 103.886 28.9886C103.991 29.1875 104.141 29.3423 104.334 29.4531C104.527 29.5639 104.757 29.6193 105.024 29.6193C105.209 29.6193 105.376 29.5937 105.527 29.5426C105.678 29.4915 105.807 29.4162 105.915 29.3168C106.023 29.2173 106.104 29.0952 106.158 28.9503L108.071 29.0057C107.991 29.4347 107.817 29.8082 107.547 30.1264C107.28 30.4418 106.929 30.6875 106.494 30.8636C106.06 31.0369 105.557 31.1236 104.986 31.1236ZM110.422 22.2727V25.6946H109.007V22.2727H110.422ZM117.32 26.4531L115.407 26.5043C115.387 26.3679 115.333 26.2472 115.245 26.142C115.157 26.0341 115.042 25.9503 114.9 25.8906C114.761 25.8281 114.599 25.7969 114.414 25.7969C114.173 25.7969 113.967 25.8452 113.796 25.9418C113.629 26.0384 113.546 26.169 113.549 26.3338C113.546 26.4616 113.597 26.5724 113.702 26.6662C113.81 26.7599 114.002 26.8352 114.278 26.892L115.539 27.1307C116.192 27.2557 116.678 27.4631 116.996 27.7528C117.317 28.0426 117.479 28.4261 117.482 28.9034C117.479 29.3523 117.346 29.7429 117.082 30.0753C116.82 30.4077 116.462 30.6662 116.008 30.8508C115.553 31.0327 115.033 31.1236 114.448 31.1236C113.513 31.1236 112.776 30.9318 112.236 30.5483C111.7 30.1619 111.393 29.6449 111.316 28.9972L113.374 28.946C113.42 29.1847 113.538 29.3665 113.728 29.4915C113.918 29.6165 114.161 29.679 114.457 29.679C114.724 29.679 114.941 29.6293 115.109 29.5298C115.276 29.4304 115.361 29.2983 115.364 29.1335C115.361 28.9858 115.296 28.8679 115.168 28.7798C115.04 28.6889 114.84 28.6179 114.567 28.5668L113.425 28.3494C112.769 28.2301 112.281 28.0099 111.959 27.6889C111.638 27.3651 111.479 26.9531 111.482 26.4531C111.479 26.0156 111.596 25.642 111.832 25.3324C112.067 25.0199 112.403 24.7812 112.837 24.6165C113.272 24.4517 113.785 24.3693 114.376 24.3693C115.262 24.3693 115.961 24.5554 116.472 24.9276C116.984 25.2969 117.266 25.8054 117.32 26.4531ZM124.312 31H121.086V22.2727H124.308C125.197 22.2727 125.963 22.4474 126.605 22.7969C127.25 23.1435 127.747 23.6435 128.096 24.2969C128.446 24.9474 128.62 25.7259 128.62 26.6321C128.62 27.5412 128.446 28.3224 128.096 28.9758C127.75 29.6293 127.254 30.1307 126.609 30.4801C125.964 30.8267 125.198 31 124.312 31ZM123.196 29.2017H124.231C124.72 29.2017 125.133 29.1193 125.471 28.9545C125.812 28.7869 126.069 28.5156 126.243 28.1406C126.419 27.7628 126.507 27.2599 126.507 26.6321C126.507 26.0043 126.419 25.5043 126.243 25.1321C126.066 24.7571 125.806 24.4872 125.463 24.3224C125.122 24.1548 124.701 24.071 124.201 24.071H123.196V29.2017ZM132.912 31.1236C132.227 31.1236 131.636 30.9886 131.139 30.7187C130.644 30.446 130.264 30.0582 129.997 29.5554C129.733 29.0497 129.6 28.4489 129.6 27.7528C129.6 27.0767 129.734 26.4858 130.001 25.9801C130.268 25.4716 130.644 25.0767 131.13 24.7955C131.616 24.5114 132.189 24.3693 132.848 24.3693C133.314 24.3693 133.74 24.4418 134.126 24.5866C134.512 24.7315 134.846 24.946 135.127 25.2301C135.409 25.5142 135.627 25.8651 135.784 26.2827C135.94 26.6974 136.018 27.1733 136.018 27.7102V28.2301H130.329V27.0199H134.079C134.076 26.7983 134.024 26.6009 133.921 26.4276C133.819 26.2543 133.679 26.1193 133.5 26.0227C133.323 25.9233 133.12 25.8736 132.89 25.8736C132.657 25.8736 132.448 25.9261 132.264 26.0312C132.079 26.1335 131.933 26.2741 131.825 26.4531C131.717 26.6293 131.66 26.8295 131.654 27.054V28.2855C131.654 28.5526 131.707 28.7869 131.812 28.9886C131.917 29.1875 132.066 29.3423 132.26 29.4531C132.453 29.5639 132.683 29.6193 132.95 29.6193C133.135 29.6193 133.302 29.5937 133.453 29.5426C133.603 29.4915 133.733 29.4162 133.841 29.3168C133.948 29.2173 134.029 29.0952 134.083 28.9503L135.997 29.0057C135.917 29.4347 135.743 29.8082 135.473 30.1264C135.206 30.4418 134.855 30.6875 134.42 30.8636C133.985 31.0369 133.483 31.1236 132.912 31.1236ZM143.256 24.4545L141.01 31H138.624L136.382 24.4545H138.577L139.783 28.9631H139.851L141.061 24.4545H143.256ZM146.633 31V22.2727H148.742V25.7756H152.181V22.2727H154.287V31H152.181V27.4929H148.742V31H146.633ZM159.833 28.1747V24.4545H161.912V31H159.926V29.7812H159.858C159.713 30.1818 159.466 30.5 159.117 30.7358C158.77 30.9687 158.351 31.0852 157.86 31.0852C157.414 31.0852 157.022 30.983 156.684 30.7784C156.345 30.5739 156.083 30.2883 155.895 29.9219C155.708 29.5526 155.613 29.1207 155.61 28.6264V24.4545H157.693V28.2173C157.696 28.5724 157.79 28.8523 157.975 29.0568C158.159 29.2614 158.411 29.3636 158.729 29.3636C158.936 29.3636 159.122 29.3182 159.287 29.2273C159.455 29.1335 159.587 28.9986 159.684 28.8224C159.783 28.6435 159.833 28.4276 159.833 28.1747ZM163.239 31V22.2727H165.322V25.5753H165.365C165.45 25.3764 165.571 25.1847 165.727 25C165.886 24.8153 166.088 24.6648 166.332 24.5483C166.579 24.429 166.875 24.3693 167.219 24.3693C167.673 24.3693 168.098 24.4886 168.493 24.7273C168.891 24.9659 169.212 25.3338 169.456 25.831C169.7 26.3281 169.822 26.9616 169.822 27.7315C169.822 28.473 169.704 29.0937 169.469 29.5937C169.236 30.0937 168.92 30.4687 168.523 30.7187C168.128 30.9687 167.689 31.0937 167.206 31.0937C166.876 31.0937 166.591 31.0398 166.349 30.9318C166.108 30.8239 165.905 30.6818 165.74 30.5057C165.578 30.3295 165.453 30.1406 165.365 29.9389H165.301V31H163.239ZM165.28 27.7273C165.28 28.0795 165.327 28.3864 165.42 28.6477C165.517 28.9091 165.655 29.1122 165.834 29.2571C166.016 29.3991 166.233 29.4702 166.486 29.4702C166.741 29.4702 166.959 29.3991 167.138 29.2571C167.317 29.1122 167.452 28.9091 167.543 28.6477C167.636 28.3864 167.683 28.0795 167.683 27.7273C167.683 27.375 167.636 27.0696 167.543 26.8111C167.452 26.5526 167.317 26.3523 167.138 26.2102C166.962 26.0682 166.744 25.9972 166.486 25.9972C166.23 25.9972 166.013 26.0668 165.834 26.206C165.655 26.3452 165.517 26.544 165.42 26.8026C165.327 27.0611 165.28 27.3693 165.28 27.7273Z" fill="#2196F3"/>
</g>
<rect x="0.75" y="0.75" width="179.5" height="38.5" rx="5.25" stroke="white" stroke-opacity="0.15" stroke-width="1.5"/>
<defs>
<filter id="filter0_d_28_575" x="5" y="2" width="37" height="36" filterUnits="userSpaceOnUse" color-interpolation-filters="sRGB">
<feFlood flood-opacity="0" result="BackgroundImageFix"/>
<feColorMatrix in="SourceAlpha" type="matrix" values="0 0 0 0 0 0 0 0 0 0 0 0 0 0 0 0 0 0 127 0" result="hardAlpha"/>
<feOffset/>
<feGaussianBlur stdDeviation="2"/>
<feComposite in2="hardAlpha" operator="out"/>
<feColorMatrix type="matrix" values="0 0 0 0 0 0 0 0 0 0 0 0 0 0 0 0 0 0 0.25 0"/>
<feBlend mode="normal" in2="BackgroundImageFix" result="effect1_dropShadow_28_575"/>
<feBlend mode="normal" in="SourceGraphic" in2="effect1_dropShadow_28_575" result="shape"/>
</filter>
<filter id="filter1_d_28_575" x="42" y="3" width="133" height="34" filterUnits="userSpaceOnUse" color-interpolation-filters="sRGB">
<feFlood flood-opacity="0" result="BackgroundImageFix"/>
<feColorMatrix in="SourceAlpha" type="matrix" values="0 0 0 0 0 0 0 0 0 0 0 0 0 0 0 0 0 0 127 0" result="hardAlpha"/>
<feOffset/>
<feGaussianBlur stdDeviation="2"/>
<feComposite in2="hardAlpha" operator="out"/>
<feColorMatrix type="matrix" values="0 0 0 0 0 0 0 0 0 0 0 0 0 0 0 0 0 0 0.25 0"/>
<feBlend mode="normal" in2="BackgroundImageFix" result="effect1_dropShadow_28_575"/>
<feBlend mode="normal" in="SourceGraphic" in2="effect1_dropShadow_28_575" result="shape"/>
</filter>
<linearGradient id="paint0_linear_28_575" x1="90.5" y1="0" x2="90.5" y2="40" gradientUnits="userSpaceOnUse">
<stop stop-color="#083559"/>
<stop offset="1" stop-color="#0D0D0D"/>
</linearGradient>
</defs>
</svg>
